<?xml version="1.0" encoding="UTF-8"?>
<svg xmlns="http://www.w3.org/2000/svg" xmlns:xlink="http://www.w3.org/1999/xlink" width="24pt" height="24pt" viewBox="0 0 24 24" version="1.1">
<g id="surface1676237">
<path style=" stroke:none;fill-rule:nonzero;fill:rgb(91.372549%,25.098039%,47.843137%);fill-opacity:1;" d="M 10 0 C 6.238281 -0.0195312 2.96875 3.101562 3 7 L 3 11.75 C 2.46875 12.226562 2.007812 13 2.007812 14.011719 C 2.007812 15.277344 2.726562 16.191406 3.402344 16.585938 C 3.765625 16.796875 3.867188 16.757812 4.125 16.8125 C 5.628906 19.925781 8.539062 22.550781 11.867188 22.996094 L 12 23.011719 L 12.132812 22.996094 C 15.460938 22.550781 18.371094 19.925781 19.875 16.8125 C 20.132812 16.757812 20.234375 16.796875 20.597656 16.585938 C 21.273438 16.191406 21.992188 15.277344 21.992188 14.011719 C 21.992188 12.746094 21.273438 11.832031 20.597656 11.433594 C 20.296875 11.261719 20.234375 11.304688 20 11.246094 L 20 6 C 20 3.789062 18.210938 2 16 2 L 15 2 L 15 2.007812 C 15 2.007812 13.980469 0 10 0 Z M 12.445312 8 L 15 8 C 16.628906 8 17.949219 9.300781 17.992188 10.921875 L 17.992188 13.011719 L 19.140625 13.011719 C 19.148438 13.015625 19.367188 13.035156 19.585938 13.164062 C 19.8125 13.292969 19.988281 13.378906 19.988281 14.011719 C 19.988281 14.644531 19.8125 14.726562 19.585938 14.855469 C 19.363281 14.988281 19.136719 15.007812 19.136719 15.007812 L 18.519531 15.042969 L 18.273438 15.609375 C 17.128906 18.257812 14.480469 20.570312 12 20.96875 C 9.519531 20.570312 6.871094 18.257812 5.722656 15.609375 L 5.480469 15.042969 L 4.863281 15.007812 C 4.863281 15.007812 4.636719 14.988281 4.410156 14.855469 C 4.1875 14.726562 4.007812 14.644531 4.007812 14.011719 C 4.007812 13.378906 4.1875 13.292969 4.410156 13.164062 C 4.632812 13.035156 4.851562 13.015625 4.855469 13.011719 L 6.007812 13.011719 L 6.007812 10 L 9 10 C 10.476562 10 11.753906 9.191406 12.445312 8 Z M 12.445312 8 "/>
</g>
</svg>
